<svg class="nc-icon outline" xmlns="http://www.w3.org/2000/svg" xmlns:xlink="http://www.w3.org/1999/xlink" x="0px" y="0px" width="48px" height="48px" viewBox="0 0 48 48"><g transform="translate(0, 0)">
<path fill="none" stroke="#444444" stroke-width="2" stroke-linecap="square" stroke-miterlimit="10" d="M46,38c0-2.2-1.8-4-4-4H6
	c-2.2,0-4,1.8-4,4v4c0,2.2,1.8,4,4,4h36c2.2,0,4-1.8,4-4V38z" stroke-linejoin="miter"></path>
<path fill="none" stroke="#444444" stroke-width="2" stroke-linecap="square" stroke-miterlimit="10" d="M42,34v-8c0-2.2-1.8-4-4-4
	H10c-2.2,0-4,1.8-4,4v8" stroke-linejoin="miter"></path>
<path fill="none" stroke="#444444" stroke-width="2" stroke-linecap="square" stroke-miterlimit="10" d="M38,22V8c0,0-3,5-9,5h-0.3
	H14c-2.2,0-4,1.8-4,4v5" stroke-linejoin="miter"></path>
</g></svg>