<?xml version="1.0" encoding="UTF-8" standalone="no"?><!DOCTYPE svg PUBLIC "-//W3C//DTD SVG 1.1//EN" "http://www.w3.org/Graphics/SVG/1.1/DTD/svg11.dtd"><svg width="100%" height="100%" viewBox="0 0 500 800" version="1.1" xmlns="http://www.w3.org/2000/svg" xmlns:xlink="http://www.w3.org/1999/xlink" xml:space="preserve" style="fill-rule:evenodd;clip-rule:evenodd;stroke-linejoin:round;stroke-miterlimit:1.41421;"><g id="Layer1"><circle cx="250" cy="400.038" r="600" style="fill:#8d33cc;"/></g><g id="Layer11"><circle cx="250" cy="400" r="450" style="fill:#26d9b9;"/></g><g id="Layer12"><circle cx="250" cy="400.038" r="325" style="fill:#8d33cc;"/></g><g id="Layer13"><circle cx="250" cy="400" r="225" style="fill:#26d9b9;"/></g><g id="Layer14"><circle cx="250" cy="400" r="165.847" style="fill:#8d33cc;"/></g><g><path d="M306.645,357.554c-2.179,2.179 -2.179,5.447 0,7.625c19.063,19.063 19.063,50.109 0,69.172c-2.179,2.179 -2.179,5.447 0,7.626c1.089,1.089 2.723,1.634 3.813,1.634c1.089,0 2.723,-0.545 3.812,-1.634c23.421,-23.421 23.421,-61.547 0,-84.968c-2.178,-1.634 -5.446,-1.634 -7.625,0.545Z" style="fill:#26d9b9;fill-rule:nonzero;"/><path d="M337.146,327.053c-2.179,2.179 -2.179,5.447 0,7.625c35.948,35.948 35.948,94.771 0,130.719c-2.179,2.179 -2.179,5.447 0,7.625c1.089,1.09 2.723,1.634 3.813,1.634c1.089,0 2.723,-0.544 3.812,-1.634c40.305,-40.305 40.305,-106.209 0,-146.514c-2.178,-1.634 -5.446,-1.634 -7.625,0.545Z" style="fill:#26d9b9;fill-rule:nonzero;"/><path d="M193.355,357.554c-2.179,-2.179 -5.447,-2.179 -7.625,0c-23.421,23.421 -23.421,61.547 0,84.967c1.089,1.09 2.723,1.634 3.812,1.634c1.09,0 2.724,-0.544 3.813,-1.634c2.179,-2.178 2.179,-5.446 0,-7.625c-19.063,-19.063 -19.063,-50.109 0,-69.172c2.179,-2.723 2.179,-5.991 0,-8.17Z" style="fill:#26d9b9;fill-rule:nonzero;"/><path d="M162.854,327.053c-2.179,-2.179 -5.447,-2.179 -7.625,0c-40.305,40.305 -40.305,105.664 0,145.969c1.089,1.09 2.723,1.634 3.812,1.634c1.09,0 2.724,-0.544 3.813,-1.634c2.179,-2.178 2.179,-5.446 0,-7.625c-35.948,-35.948 -35.948,-94.771 0,-130.719c2.179,-2.178 2.179,-5.446 0,-7.625Z" style="fill:#26d9b9;fill-rule:nonzero;"/><path d="M250,372.805c-15.251,0 -27.233,11.982 -27.233,27.233c0,15.25 11.982,27.233 27.233,27.233c15.251,0 27.233,-11.983 27.233,-27.233c0,-15.251 -11.982,-27.233 -27.233,-27.233Z" style="fill:#26d9b9;fill-rule:nonzero;"/></g></svg>