<svg class="nc-icon outline" xmlns="http://www.w3.org/2000/svg" xmlns:xlink="http://www.w3.org/1999/xlink" x="0px" y="0px" width="48px" height="48px" viewBox="0 0 48 48"><g transform="translate(0, 0)">
<polygon data-color="color-2" fill="none" stroke="#444444" stroke-width="2" stroke-linecap="square" stroke-miterlimit="10" points="
	38,28 10,28 10,34 10,40 38,40 " stroke-linejoin="miter"></polygon>
<line data-color="color-2" fill="none" stroke="#444444" stroke-width="2" stroke-linecap="square" stroke-miterlimit="10" x1="19" y1="40" x2="19" y2="28" stroke-linejoin="miter"></line>
<line data-color="color-2" fill="none" stroke="#444444" stroke-width="2" stroke-linecap="square" stroke-miterlimit="10" x1="29" y1="40" x2="29" y2="28" stroke-linejoin="miter"></line>
<line data-color="color-2" fill="none" stroke="#444444" stroke-width="2" stroke-linecap="square" stroke-miterlimit="10" x1="12" y1="22" x2="17" y2="22" stroke-linejoin="miter"></line>
<line data-color="color-2" fill="none" stroke="#444444" stroke-width="2" stroke-linecap="square" stroke-miterlimit="10" x1="31" y1="22" x2="36" y2="22" stroke-linejoin="miter"></line>
<line data-color="color-2" fill="none" stroke="#444444" stroke-width="2" stroke-linecap="square" stroke-miterlimit="10" x1="38" y1="34" x2="10" y2="34" stroke-linejoin="miter"></line>
<polygon fill="none" stroke="#444444" stroke-width="2" stroke-linecap="square" stroke-miterlimit="10" points="46,14 10,14 2,14 
	2,46 46,46 " stroke-linejoin="miter"></polygon>
<line fill="none" stroke="#444444" stroke-width="2" stroke-linecap="square" stroke-miterlimit="10" x1="10" y1="6" x2="10" y2="14" stroke-linejoin="miter"></line>
<rect x="5" y="2" fill="none" stroke="#444444" stroke-width="2" stroke-linecap="square" stroke-miterlimit="10" width="10" height="4" stroke-linejoin="miter"></rect>
<rect x="33" y="2" fill="none" stroke="#444444" stroke-width="2" stroke-linecap="square" stroke-miterlimit="10" width="10" height="4" stroke-linejoin="miter"></rect>
<line fill="none" stroke="#444444" stroke-width="2" stroke-linecap="square" stroke-miterlimit="10" x1="38" y1="6" x2="38" y2="14" stroke-linejoin="miter"></line>
</g></svg>